<mxfile host="Electron" agent="Mozilla/5.0 (Windows NT 10.0; Win64; x64) AppleWebKit/537.36 (KHTML, like Gecko) draw.io/25.0.2 Chrome/128.0.6613.186 Electron/32.2.5 Safari/537.36" version="25.0.2">
  <diagram id="C5RBs43oDa-KdzZeNtuy" name="Page-1">
    <mxGraphModel dx="1036" dy="702" grid="1" gridSize="10" guides="1" tooltips="1" connect="1" arrows="1" fold="1" page="1" pageScale="1" pageWidth="827" pageHeight="1169" math="0" shadow="0">
      <root>
        <mxCell id="WIyWlLk6GJQsqaUBKTNV-0" />
        <mxCell id="WIyWlLk6GJQsqaUBKTNV-1" parent="WIyWlLk6GJQsqaUBKTNV-0" />
        <mxCell id="QGuFOocTNHu8qTovmKRL-6" value="" style="edgeStyle=orthogonalEdgeStyle;rounded=0;orthogonalLoop=1;jettySize=auto;html=1;" edge="1" parent="WIyWlLk6GJQsqaUBKTNV-1" source="QGuFOocTNHu8qTovmKRL-0" target="QGuFOocTNHu8qTovmKRL-4">
          <mxGeometry relative="1" as="geometry" />
        </mxCell>
        <mxCell id="QGuFOocTNHu8qTovmKRL-0" value="start" style="ellipse;whiteSpace=wrap;html=1;" vertex="1" parent="WIyWlLk6GJQsqaUBKTNV-1">
          <mxGeometry x="340" y="20" width="120" height="80" as="geometry" />
        </mxCell>
        <mxCell id="QGuFOocTNHu8qTovmKRL-1" value="end" style="ellipse;whiteSpace=wrap;html=1;" vertex="1" parent="WIyWlLk6GJQsqaUBKTNV-1">
          <mxGeometry x="270" y="730" width="120" height="80" as="geometry" />
        </mxCell>
        <mxCell id="QGuFOocTNHu8qTovmKRL-14" value="" style="edgeStyle=orthogonalEdgeStyle;rounded=0;orthogonalLoop=1;jettySize=auto;html=1;" edge="1" parent="WIyWlLk6GJQsqaUBKTNV-1" source="QGuFOocTNHu8qTovmKRL-2" target="QGuFOocTNHu8qTovmKRL-5">
          <mxGeometry relative="1" as="geometry" />
        </mxCell>
        <mxCell id="QGuFOocTNHu8qTovmKRL-2" value="input n" style="shape=parallelogram;perimeter=parallelogramPerimeter;whiteSpace=wrap;html=1;fixedSize=1;" vertex="1" parent="WIyWlLk6GJQsqaUBKTNV-1">
          <mxGeometry x="340" y="240" width="120" height="60" as="geometry" />
        </mxCell>
        <mxCell id="QGuFOocTNHu8qTovmKRL-20" value="" style="edgeStyle=orthogonalEdgeStyle;rounded=0;orthogonalLoop=1;jettySize=auto;html=1;" edge="1" parent="WIyWlLk6GJQsqaUBKTNV-1" source="QGuFOocTNHu8qTovmKRL-3" target="QGuFOocTNHu8qTovmKRL-19">
          <mxGeometry relative="1" as="geometry" />
        </mxCell>
        <mxCell id="QGuFOocTNHu8qTovmKRL-3" value="int i = 2; i &amp;lt;= sqrt(num); i++" style="rounded=0;whiteSpace=wrap;html=1;" vertex="1" parent="WIyWlLk6GJQsqaUBKTNV-1">
          <mxGeometry x="340" y="460" width="120" height="60" as="geometry" />
        </mxCell>
        <mxCell id="QGuFOocTNHu8qTovmKRL-15" value="" style="edgeStyle=orthogonalEdgeStyle;rounded=0;orthogonalLoop=1;jettySize=auto;html=1;" edge="1" parent="WIyWlLk6GJQsqaUBKTNV-1" source="QGuFOocTNHu8qTovmKRL-4" target="QGuFOocTNHu8qTovmKRL-2">
          <mxGeometry relative="1" as="geometry" />
        </mxCell>
        <mxCell id="QGuFOocTNHu8qTovmKRL-4" value="count=0,num=2,a=1" style="rounded=0;whiteSpace=wrap;html=1;" vertex="1" parent="WIyWlLk6GJQsqaUBKTNV-1">
          <mxGeometry x="340" y="140" width="120" height="60" as="geometry" />
        </mxCell>
        <mxCell id="QGuFOocTNHu8qTovmKRL-16" value="" style="edgeStyle=orthogonalEdgeStyle;rounded=0;orthogonalLoop=1;jettySize=auto;html=1;" edge="1" parent="WIyWlLk6GJQsqaUBKTNV-1" source="QGuFOocTNHu8qTovmKRL-5" target="QGuFOocTNHu8qTovmKRL-3">
          <mxGeometry relative="1" as="geometry" />
        </mxCell>
        <mxCell id="QGuFOocTNHu8qTovmKRL-24" style="edgeStyle=orthogonalEdgeStyle;rounded=0;orthogonalLoop=1;jettySize=auto;html=1;exitX=0;exitY=0.5;exitDx=0;exitDy=0;entryX=0;entryY=0.5;entryDx=0;entryDy=0;" edge="1" parent="WIyWlLk6GJQsqaUBKTNV-1" source="QGuFOocTNHu8qTovmKRL-5" target="QGuFOocTNHu8qTovmKRL-1">
          <mxGeometry relative="1" as="geometry" />
        </mxCell>
        <mxCell id="QGuFOocTNHu8qTovmKRL-5" value="count&amp;lt;n?" style="rhombus;whiteSpace=wrap;html=1;" vertex="1" parent="WIyWlLk6GJQsqaUBKTNV-1">
          <mxGeometry x="360" y="340" width="80" height="80" as="geometry" />
        </mxCell>
        <mxCell id="QGuFOocTNHu8qTovmKRL-9" value="true" style="text;html=1;align=center;verticalAlign=middle;resizable=0;points=[];autosize=1;strokeColor=none;fillColor=none;" vertex="1" parent="WIyWlLk6GJQsqaUBKTNV-1">
          <mxGeometry x="400" y="420" width="40" height="30" as="geometry" />
        </mxCell>
        <mxCell id="QGuFOocTNHu8qTovmKRL-22" value="" style="edgeStyle=orthogonalEdgeStyle;rounded=0;orthogonalLoop=1;jettySize=auto;html=1;" edge="1" parent="WIyWlLk6GJQsqaUBKTNV-1" source="QGuFOocTNHu8qTovmKRL-19" target="QGuFOocTNHu8qTovmKRL-21">
          <mxGeometry relative="1" as="geometry" />
        </mxCell>
        <mxCell id="QGuFOocTNHu8qTovmKRL-26" style="edgeStyle=orthogonalEdgeStyle;rounded=0;orthogonalLoop=1;jettySize=auto;html=1;exitX=0.5;exitY=0;exitDx=0;exitDy=0;entryX=0.75;entryY=0;entryDx=0;entryDy=0;" edge="1" parent="WIyWlLk6GJQsqaUBKTNV-1" source="QGuFOocTNHu8qTovmKRL-19" target="QGuFOocTNHu8qTovmKRL-3">
          <mxGeometry relative="1" as="geometry" />
        </mxCell>
        <mxCell id="QGuFOocTNHu8qTovmKRL-19" value="num % i == 0" style="rhombus;whiteSpace=wrap;html=1;" vertex="1" parent="WIyWlLk6GJQsqaUBKTNV-1">
          <mxGeometry x="520" y="450" width="80" height="80" as="geometry" />
        </mxCell>
        <mxCell id="QGuFOocTNHu8qTovmKRL-29" value="" style="edgeStyle=orthogonalEdgeStyle;rounded=0;orthogonalLoop=1;jettySize=auto;html=1;" edge="1" parent="WIyWlLk6GJQsqaUBKTNV-1" source="QGuFOocTNHu8qTovmKRL-21" target="QGuFOocTNHu8qTovmKRL-28">
          <mxGeometry relative="1" as="geometry" />
        </mxCell>
        <mxCell id="QGuFOocTNHu8qTovmKRL-21" value="a=0" style="rounded=0;whiteSpace=wrap;html=1;" vertex="1" parent="WIyWlLk6GJQsqaUBKTNV-1">
          <mxGeometry x="500" y="570" width="120" height="60" as="geometry" />
        </mxCell>
        <mxCell id="QGuFOocTNHu8qTovmKRL-23" value="true" style="text;html=1;align=center;verticalAlign=middle;resizable=0;points=[];autosize=1;strokeColor=none;fillColor=none;" vertex="1" parent="WIyWlLk6GJQsqaUBKTNV-1">
          <mxGeometry x="560" y="530" width="40" height="30" as="geometry" />
        </mxCell>
        <mxCell id="QGuFOocTNHu8qTovmKRL-25" value="false" style="text;html=1;align=center;verticalAlign=middle;resizable=0;points=[];autosize=1;strokeColor=none;fillColor=none;" vertex="1" parent="WIyWlLk6GJQsqaUBKTNV-1">
          <mxGeometry x="315" y="348" width="50" height="30" as="geometry" />
        </mxCell>
        <mxCell id="QGuFOocTNHu8qTovmKRL-27" value="false" style="text;html=1;align=center;verticalAlign=middle;resizable=0;points=[];autosize=1;strokeColor=none;fillColor=none;" vertex="1" parent="WIyWlLk6GJQsqaUBKTNV-1">
          <mxGeometry x="485" y="398" width="50" height="30" as="geometry" />
        </mxCell>
        <mxCell id="QGuFOocTNHu8qTovmKRL-45" style="edgeStyle=orthogonalEdgeStyle;rounded=0;orthogonalLoop=1;jettySize=auto;html=1;exitX=1;exitY=0.5;exitDx=0;exitDy=0;entryX=0;entryY=0.5;entryDx=0;entryDy=0;" edge="1" parent="WIyWlLk6GJQsqaUBKTNV-1" source="QGuFOocTNHu8qTovmKRL-28" target="QGuFOocTNHu8qTovmKRL-39">
          <mxGeometry relative="1" as="geometry" />
        </mxCell>
        <mxCell id="QGuFOocTNHu8qTovmKRL-28" value="a?" style="rhombus;whiteSpace=wrap;html=1;" vertex="1" parent="WIyWlLk6GJQsqaUBKTNV-1">
          <mxGeometry x="520" y="760" width="80" height="80" as="geometry" />
        </mxCell>
        <mxCell id="QGuFOocTNHu8qTovmKRL-34" value="" style="edgeStyle=orthogonalEdgeStyle;rounded=0;orthogonalLoop=1;jettySize=auto;html=1;" edge="1" parent="WIyWlLk6GJQsqaUBKTNV-1" source="QGuFOocTNHu8qTovmKRL-30" target="QGuFOocTNHu8qTovmKRL-33">
          <mxGeometry relative="1" as="geometry" />
        </mxCell>
        <mxCell id="QGuFOocTNHu8qTovmKRL-30" value="num" style="strokeWidth=2;html=1;shape=mxgraph.flowchart.display;whiteSpace=wrap;" vertex="1" parent="WIyWlLk6GJQsqaUBKTNV-1">
          <mxGeometry x="717" y="850" width="100" height="60" as="geometry" />
        </mxCell>
        <mxCell id="QGuFOocTNHu8qTovmKRL-32" value="true" style="text;html=1;align=center;verticalAlign=middle;resizable=0;points=[];autosize=1;strokeColor=none;fillColor=none;" vertex="1" parent="WIyWlLk6GJQsqaUBKTNV-1">
          <mxGeometry x="560" y="840" width="40" height="30" as="geometry" />
        </mxCell>
        <mxCell id="QGuFOocTNHu8qTovmKRL-46" style="edgeStyle=orthogonalEdgeStyle;rounded=0;orthogonalLoop=1;jettySize=auto;html=1;exitX=0.5;exitY=0;exitDx=0;exitDy=0;entryX=0.5;entryY=1;entryDx=0;entryDy=0;" edge="1" parent="WIyWlLk6GJQsqaUBKTNV-1" source="QGuFOocTNHu8qTovmKRL-33" target="QGuFOocTNHu8qTovmKRL-39">
          <mxGeometry relative="1" as="geometry" />
        </mxCell>
        <mxCell id="QGuFOocTNHu8qTovmKRL-33" value="count++" style="rounded=0;whiteSpace=wrap;html=1;" vertex="1" parent="WIyWlLk6GJQsqaUBKTNV-1">
          <mxGeometry x="707" y="630" width="120" height="60" as="geometry" />
        </mxCell>
        <mxCell id="QGuFOocTNHu8qTovmKRL-47" style="edgeStyle=orthogonalEdgeStyle;rounded=0;orthogonalLoop=1;jettySize=auto;html=1;exitX=0.5;exitY=0;exitDx=0;exitDy=0;entryX=1;entryY=0.5;entryDx=0;entryDy=0;" edge="1" parent="WIyWlLk6GJQsqaUBKTNV-1" source="QGuFOocTNHu8qTovmKRL-39" target="QGuFOocTNHu8qTovmKRL-5">
          <mxGeometry relative="1" as="geometry" />
        </mxCell>
        <mxCell id="QGuFOocTNHu8qTovmKRL-39" value="num++" style="rounded=0;whiteSpace=wrap;html=1;" vertex="1" parent="WIyWlLk6GJQsqaUBKTNV-1">
          <mxGeometry x="707" y="450" width="120" height="60" as="geometry" />
        </mxCell>
        <mxCell id="QGuFOocTNHu8qTovmKRL-43" value="false" style="text;html=1;align=center;verticalAlign=middle;resizable=0;points=[];autosize=1;strokeColor=none;fillColor=none;" vertex="1" parent="WIyWlLk6GJQsqaUBKTNV-1">
          <mxGeometry x="590" y="770" width="50" height="30" as="geometry" />
        </mxCell>
        <mxCell id="QGuFOocTNHu8qTovmKRL-44" style="edgeStyle=orthogonalEdgeStyle;rounded=0;orthogonalLoop=1;jettySize=auto;html=1;exitX=0.5;exitY=1;exitDx=0;exitDy=0;entryX=0;entryY=0.5;entryDx=0;entryDy=0;entryPerimeter=0;" edge="1" parent="WIyWlLk6GJQsqaUBKTNV-1" source="QGuFOocTNHu8qTovmKRL-28" target="QGuFOocTNHu8qTovmKRL-30">
          <mxGeometry relative="1" as="geometry" />
        </mxCell>
      </root>
    </mxGraphModel>
  </diagram>
</mxfile>
